<?xml version="1.0" encoding="utf-8"?>
<!-- Generator: Adobe Illustrator 17.0.0, SVG Export Plug-In . SVG Version: 6.00 Build 0)  -->
<!DOCTYPE svg PUBLIC "-//W3C//DTD SVG 1.1//EN" "http://www.w3.org/Graphics/SVG/1.1/DTD/svg11.dtd">
<svg version="1.1" id="Layer_1" xmlns="http://www.w3.org/2000/svg" xmlns:xlink="http://www.w3.org/1999/xlink" x="0px" y="0px"
	 width="307.933px" height="50.4px" viewBox="0 0 307.933 50.4" enable-background="new 0 0 307.933 50.4" xml:space="preserve">
<g>
	<g>
		<path fill="#FFFFFF" d="M162.583,50.4h-8.275V0h8.275V50.4z"/>
		<path fill="#FFFFFF" d="M189.623,50.4H172.58V0.004h17.043c3.504,0,6.73,0.553,9.682,1.66c2.949,1.105,5.484,2.697,7.607,4.77
			c2.117,2.074,3.766,4.609,4.941,7.603c1.176,2.998,1.762,7.387,1.762,11.164c0,3.734-0.586,8.098-1.762,11.096
			c-1.176,2.994-2.812,5.541-4.908,7.639c-2.1,2.098-4.621,3.697-7.574,4.805C196.421,49.846,193.173,50.4,189.623,50.4z
			 M189.623,7.217h-9.713v35.969h9.713c5.162,0,9.115-1.236,11.857-4.314c2.746-3.074,4.115-8.299,4.115-13.67
			c0-5.369-1.369-10.594-4.115-13.668C198.738,8.457,194.785,7.217,189.623,7.217z"/>
		<path fill="#FFFFFF" d="M56.831,50.412h-8.75l-22.67-37.719v37.719h-7.633v-50.4h8.725l22.824,37.949L49.33,0.012h7.501V50.412z"
			/>
		<path fill="#FFFFFF" d="M7.775,50.4H0V0h7.775V50.4z"/>
		<path fill="#FFFFFF" d="M100.911,7.199H86.368V50.4h-7.777V7.199H64.12V0h36.791V7.199z"/>
		<g>
			<g>
				<path fill="#FFFFFF" d="M137.54,3.381c-3.023-2.254-6.797-3.383-12.316-3.383h-16.312v50.4h7.775V31.029l9.287-0.055
					c5.52,0,9.293-1.129,12.316-3.385c3.023-2.256,4.785-7.023,4.785-12.303v-0.602C143.075,9.406,140.563,5.639,137.54,3.381z
					 M135.085,14.998c0,5.76-3.148,8.641-9.941,8.641h-8.457V7.23h7.707c6.793,0,10.691,1.984,10.691,7.744V14.998z"/>
			</g>
		</g>
		<path fill="#FFFFFF" d="M229.722,42.919V28.888h16.922v-7.496h-16.922V7.524h24.281V0.03h-32.375v50.386l32.398,0.009l2.803-7.527
			L229.722,42.919z"/>
		<path fill="#FFFFFF" d="M307.933,50.428h-8.395l-4.811-11.485h-19.236l-4.883,11.485h-8.322l18.738-50.385h8.096L307.933,50.428z
			 M291.996,30.93l-6.885-19.118l-6.885,19.118H291.996z"/>
	</g>
	<path fill="#FFFFFF" d="M148.054,50.398L132.6,24.713c-2.175,1.699-4.855,1.731-7.462,2.219l14.109,23.467H148.054z"/>
</g>
</svg>
