<?xml version="1.0" encoding="utf-8"?>
<!-- Generator: Adobe Illustrator 17.1.0, SVG Export Plug-In . SVG Version: 6.00 Build 0)  -->
<!DOCTYPE svg PUBLIC "-//W3C//DTD SVG 1.1//EN" "http://www.w3.org/Graphics/SVG/1.1/DTD/svg11.dtd">
<svg version="1.1" id="Layer_1" xmlns="http://www.w3.org/2000/svg" xmlns:xlink="http://www.w3.org/1999/xlink" x="0px" y="0px"
	 viewBox="0 0 16.047 21" enable-background="new 0 0 16.047 21" xml:space="preserve">
<path class="intrideaLogo" fill="#A6A5CA" d="M16.045,11.507c0-0.002,0-0.004,0-0.006c0.001-0.008,0.001-0.016,0.001-0.024c0-0.003,0-0.006,0-0.009
	c0-0.001,0-0.002,0-0.004c0-0.001,0-0.003,0-0.004l-0.277-5.603c-0.004-0.079-0.042-0.152-0.105-0.199L8.352,0.055
	C8.351,0.054,8.35,0.054,8.35,0.054C8.348,0.052,8.345,0.05,8.343,0.049C8.342,0.048,8.34,0.047,8.339,0.045
	C8.334,0.042,8.329,0.04,8.325,0.038C8.322,0.036,8.32,0.034,8.317,0.033C8.315,0.032,8.313,0.03,8.31,0.029
	C8.308,0.028,8.306,0.027,8.304,0.026C8.302,0.025,8.3,0.024,8.297,0.023l0,0c-0.001,0-0.002-0.001-0.003-0.001
	C8.291,0.02,8.288,0.019,8.284,0.018c-0.005-0.002-0.01-0.005-0.016-0.006C8.266,0.011,8.263,0.01,8.26,0.01
	C8.258,0.009,8.255,0.008,8.253,0.007C8.248,0.006,8.244,0.006,8.24,0.005c-0.005-0.001-0.01-0.002-0.016-0.003
	c-0.004,0-0.007-0.001-0.011-0.001C8.211,0.001,8.209,0,8.207,0c0,0,0,0,0,0C8.202,0,8.198,0,8.194,0c-0.005,0-0.01,0-0.015,0
	C8.175,0,8.171,0.001,8.167,0.001C8.161,0.001,8.155,0.002,8.149,0.003c-0.005,0.001-0.01,0.001-0.015,0.002
	C8.13,0.007,8.126,0.008,8.122,0.009C8.116,0.01,8.11,0.012,8.104,0.014C8.101,0.015,8.098,0.015,8.095,0.016
	C8.093,0.017,8.092,0.018,8.09,0.019C8.086,0.021,8.082,0.022,8.078,0.024c-0.005,0.002-0.01,0.005-0.016,0.008
	C8.058,0.035,8.053,0.037,8.048,0.04C8.045,0.042,8.041,0.045,8.037,0.047C8.033,0.05,8.029,0.053,8.025,0.057
	C8.02,0.06,8.015,0.064,8.011,0.068C8.009,0.07,8.006,0.071,8.005,0.073C8.003,0.074,8.002,0.076,8.001,0.077
	C8,0.078,7.998,0.08,7.996,0.081C7.995,0.083,7.993,0.085,7.991,0.087c-0.004,0.005-0.008,0.01-0.012,0.015
	C7.976,0.106,7.973,0.109,7.97,0.113C7.969,0.115,7.968,0.116,7.967,0.118c0,0.001-0.001,0.001-0.001,0.001L1.983,9.144
	C1.98,9.149,1.977,9.153,1.975,9.158c-0.002,0.003-0.004,0.006-0.006,0.01C1.962,9.181,1.957,9.194,1.952,9.207
	c0,0.001-0.001,0.001-0.001,0.002L0.013,15.19c-0.001,0.004-0.002,0.007-0.003,0.011c0,0.001,0,0.001,0,0.002
	c-0.002,0.007-0.004,0.014-0.005,0.021c0,0.002-0.001,0.004-0.001,0.007c-0.001,0.005-0.001,0.011-0.002,0.016
	C0.001,15.252,0,15.258,0,15.263c0,0.003,0,0.006,0,0.009c0,0.006,0,0.011,0.001,0.017c0,0.005,0,0.009,0.001,0.014
	c0,0.004,0.001,0.008,0.002,0.011c0.001,0.006,0.002,0.011,0.003,0.017c0.001,0.004,0.001,0.007,0.002,0.011
	c0.001,0.004,0.003,0.009,0.004,0.013c0.002,0.006,0.004,0.011,0.006,0.016c0.001,0.003,0.002,0.006,0.003,0.009c0,0,0,0,0,0
	c0.002,0.005,0.005,0.009,0.007,0.014c0.003,0.005,0.005,0.01,0.008,0.015c0.001,0.002,0.002,0.004,0.003,0.006
	c0.004,0.006,0.008,0.011,0.012,0.016c0.003,0.004,0.006,0.008,0.009,0.012c0.008,0.009,0.016,0.017,0.024,0.025
	c0.002,0.001,0.003,0.003,0.005,0.005c0,0,0.001,0.001,0.001,0.001c0,0,0,0,0.001,0.001l6.3,5.443C6.443,20.97,6.512,21,6.584,21
	c0.006,0,0.012,0,0.019-0.001l6.455-0.45c0.002,0,0.003-0.001,0.005-0.001c0.002,0,0.004,0,0.006,0c0.003,0,0.006-0.001,0.009-0.002
	c0.008-0.001,0.015-0.002,0.023-0.004c0.005-0.001,0.009-0.002,0.014-0.004c0.007-0.002,0.014-0.005,0.021-0.007
	c0.005-0.002,0.009-0.003,0.013-0.005c0.007-0.003,0.014-0.007,0.02-0.01c0.004-0.002,0.008-0.004,0.012-0.007
	c0.007-0.005,0.014-0.01,0.021-0.015c0.003-0.002,0.005-0.004,0.008-0.006c0.009-0.008,0.018-0.016,0.026-0.025
	c0.002-0.002,0.003-0.004,0.005-0.006c0.006-0.007,0.012-0.015,0.018-0.023c0.003-0.004,0.005-0.008,0.007-0.011
	c0.003-0.005,0.007-0.01,0.009-0.015c0.001-0.002,0.002-0.004,0.002-0.005c0.002-0.004,0.004-0.009,0.006-0.013
	c0.003-0.007,0.006-0.014,0.008-0.022c0.001-0.002,0.002-0.004,0.002-0.006l2.74-8.808c0-0.001,0-0.002,0.001-0.003
	c0.001-0.002,0.001-0.004,0.002-0.007c0.001-0.002,0.001-0.005,0.002-0.007c0.001-0.006,0.002-0.012,0.003-0.018
	c0-0.002,0.001-0.005,0.001-0.007C16.044,11.51,16.045,11.508,16.045,11.507z M2.39,9.595l0.571,0.097l2.231,0.377l-4.333,4.249
	L2.39,9.595z M12.169,6.557l-0.66,2.085l-1.531,4.841l-1.4-12.171l0.655,0.956L12.169,6.557z M5.736,10.286l0.814,0.966l2.754,3.269
	l-8.342,0.447L5.736,10.286z M10.314,14.199l2.238-7.073l2.843,4.255l-1.742,0.966L10.314,14.199z M8.09,1.752l1.398,12.155
	L6.048,9.825l0.685-2.71L8.09,1.752z M15.24,6.008l0.223,4.511l-2.778-4.158L9.358,1.501L15.24,6.008z M7.318,2.62L5.556,9.587
	l-0.21-0.036L2.657,9.096l4.886-7.371L7.318,2.62z M6.097,15.229l3.292-0.176l-2.882,5.256l-5.561-4.804L6.097,15.229z
	 M9.861,15.306l0.428,0.743l2.303,3.995l-5.538,0.386L9.861,15.306z M12.965,19.617l-2.741-4.755l5.101-2.829L12.965,19.617z"/>
<g>
</g>
<g>
</g>
<g>
</g>
<g>
</g>
<g>
</g>
<g>
</g>
</svg>
